<svg preserveAspectRatio="none" width="100%" height="100%" overflow="visible" style="display: block;" viewBox="0 0 14 14" fill="none" xmlns="http://www.w3.org/2000/svg">
<g id="ege_new">
<path id="Vector 1" d="M8.7959 6.93636C8.7959 5.6 7.40707 3.29318 4.27822 3.29318C1.14937 3.29318 0 5.90227 0 7.01591C0 3.03864 3.24059 0 7.0878 0C10.935 0 14 2.87955 14 5.80682C14 8.41591 12.0365 9.32273 10.4401 9.32273C9.38654 9.32273 8.18928 8.97273 8.18928 8.41591C8.18928 7.98636 8.7959 7.98636 8.7959 6.93636Z" fill="url(#paint0_linear_0_398)"/>
<g id="Subtract">
<path d="M4.27822 3.29318C7.40707 3.29318 8.7959 5.6 8.7959 6.93636C8.7959 6.94675 8.79584 6.95704 8.79572 6.96722C8.77993 6.07727 8.17905 5.23409 6.99202 5.23409C5.49145 5.23409 3.46408 7.27045 3.73546 9.8C3.95269 11.8248 5.66705 14.5409 9.38654 13.5864C9.38654 13.5864 8.68415 14 6.72064 14C3.24059 14 0 10.8182 0 7.175C0 7.07849 0.00147216 6.98382 0.00444114 6.89098C0.0846738 5.71913 1.26118 3.29318 4.27822 3.29318Z" fill="url(#paint1_linear_0_398)"/>
<path d="M4.27822 3.29318C7.40707 3.29318 8.7959 5.6 8.7959 6.93636C8.7959 6.94675 8.79584 6.95704 8.79572 6.96722C8.77993 6.07727 8.17905 5.23409 6.99202 5.23409C5.49145 5.23409 3.46408 7.27045 3.73546 9.8C3.95269 11.8248 5.66705 14.5409 9.38654 13.5864C9.38654 13.5864 8.68415 14 6.72064 14C3.24059 14 0 10.8182 0 7.175C0 7.07849 0.00147216 6.98382 0.00444114 6.89098C0.0846738 5.71913 1.26118 3.29318 4.27822 3.29318Z" fill="url(#paint2_radial_0_398)"/>
</g>
<g id="Subtract_2">
<path d="M8.95326 13.7498C10.946 13.2062 12.3697 11.5103 12.6272 11.1682C12.9145 10.7863 12.9943 10.5477 12.9145 10.4682C12.8347 10.3886 12.7229 10.4045 12.4356 10.5477C12.1482 10.6909 10.4561 11.3909 8.52453 10.8023C6.59294 10.2136 5.26797 8.68634 5.26797 6.99998C5.26797 5.69543 6.38542 5.23407 6.99203 5.23407C5.49146 5.23407 3.4641 7.27043 3.73547 9.79998C3.9527 11.8248 5.66706 14.5409 9.38656 13.5863C9.38656 13.5863 9.2569 13.6627 8.95326 13.7498Z" fill="var(--fill-0, #0E458A)"/>
<path d="M8.95326 13.7498C10.946 13.2062 12.3697 11.5103 12.6272 11.1682C12.9145 10.7863 12.9943 10.5477 12.9145 10.4682C12.8347 10.3886 12.7229 10.4045 12.4356 10.5477C12.1482 10.6909 10.4561 11.3909 8.52453 10.8023C6.59294 10.2136 5.26797 8.68634 5.26797 6.99998C5.26797 5.69543 6.38542 5.23407 6.99203 5.23407C5.49146 5.23407 3.4641 7.27043 3.73547 9.79998C3.9527 11.8248 5.66706 14.5409 9.38656 13.5863C9.38656 13.5863 9.2569 13.6627 8.95326 13.7498Z" fill="url(#paint3_radial_0_398)"/>
</g>
</g>
<defs>
<linearGradient id="paint0_linear_0_398" x1="13.1859" y1="8.27273" x2="-0.505904" y2="5.03823" gradientUnits="userSpaceOnUse">
<stop stop-color="#3BCC50"/>
<stop offset="0.489583" stop-color="#2ABAD6"/>
<stop offset="1" stop-color="#7DCFE7"/>
</linearGradient>
<linearGradient id="paint1_linear_0_398" x1="4.69327" y1="3.29318" x2="4.69327" y2="14" gradientUnits="userSpaceOnUse">
<stop stop-color="#035989"/>
<stop offset="0.265625" stop-color="#1175B6"/>
<stop offset="1" stop-color="#0470CF"/>
</linearGradient>
<radialGradient id="paint2_radial_0_398" cx="0" cy="0" r="1" gradientTransform="matrix(2.42645 4.07273 -4.08666 2.41818 4.46978 8.49546)" gradientUnits="userSpaceOnUse">
<stop stop-color="#1284D8"/>
<stop offset="0.813899" stop-color="#1170B2" stop-opacity="0.767762"/>
<stop offset="1" stop-color="#0E649B" stop-opacity="0.65"/>
</radialGradient>
<radialGradient id="paint3_radial_0_398" cx="0" cy="0" r="1" gradientTransform="matrix(0.798176 3.75455 -4.05473 0.856124 8.33296 9.79998)" gradientUnits="userSpaceOnUse">
<stop stop-color="#104890"/>
<stop offset="0.69943" stop-color="#12529E" stop-opacity="0.70624"/>
<stop offset="1" stop-color="#0E4584" stop-opacity="0.58"/>
</radialGradient>
</defs>
</svg>
